HIERARCHY
ROOT joint_Root
{
	OFFSET 0.0 0.0 0.0
	CHANNELS 6 Xposition Yposition Zposition Zrotation Xrotation Yrotation 
	JOINT Hips
	{
		OFFSET -17.1583 93.1646 452.98
		CHANNELS 6 Xposition Yposition Zposition Zrotation Xrotation Yrotation 
		JOINT Spine
		{
			OFFSET 15.7357 0.0 0.0
			CHANNELS 6 Xposition Yposition Zposition Zrotation Xrotation Yrotation 
			JOINT Chest
			{
				OFFSET 8.98455 -0.406207 0.0
				CHANNELS 6 Xposition Yposition Zposition Zrotation Xrotation Yrotation 
				JOINT Neck
				{
					OFFSET 16.3773 0.0 0.0
					CHANNELS 6 Xposition Yposition Zposition Zrotation Xrotation Yrotation 
					JOINT Head
					{
						OFFSET 6.45672 0.0 0.0
						CHANNELS 6 Xposition Yposition Zposition Zrotation Xrotation Yrotation 
						End Site
						{
							OFFSET 0.0 0.0 0.0
						}
					}
				}
				JOINT Shoulder_L
				{
					OFFSET 12.9942 -0.242716 4.98039
					CHANNELS 6 Xposition Yposition Zposition Zrotation Xrotation Yrotation 
					JOINT UpperArm_L
					{
						OFFSET 5.34809 0.0 0.0
						CHANNELS 6 Xposition Yposition Zposition Zrotation Xrotation Yrotation 
						JOINT LowerArm_L
						{
							OFFSET 24.3286 1.87007e-05 0.0
							CHANNELS 6 Xposition Yposition Zposition Zrotation Xrotation Yrotation 
							JOINT Hand_L
							{
								OFFSET 22.2916 0.0 0.0
								CHANNELS 6 Xposition Yposition Zposition Zrotation Xrotation Yrotation 
								End Site
								{
									OFFSET 0.0 0.0 0.0
								}
							}
						}
					}
				}
				JOINT Shoulder_R
				{
					OFFSET 12.9945 -0.242716 -4.98039
					CHANNELS 6 Xposition Yposition Zposition Zrotation Xrotation Yrotation 
					JOINT UpperArm_R
					{
						OFFSET -5.34813 0.0 0.0
						CHANNELS 6 Xposition Yposition Zposition Zrotation Xrotation Yrotation 
						JOINT LowerArm_R
						{
							OFFSET -24.3289 0.000322201 0.0
							CHANNELS 6 Xposition Yposition Zposition Zrotation Xrotation Yrotation 
							JOINT Hand_R
							{
								OFFSET -22.2915 -0.000108084 0.0
								CHANNELS 6 Xposition Yposition Zposition Zrotation Xrotation Yrotation 
								End Site
								{
									OFFSET 0.0 0.0 0.0
								}
							}
						}
					}
				}
			}
		}
		JOINT UpperLeg_L
		{
			OFFSET -2.19248 -6.46944 0.0
			CHANNELS 6 Xposition Yposition Zposition Zrotation Xrotation Yrotation 
			JOINT LowerLeg_L
			{
				OFFSET 39.0811 0.0 -1.23785e-05
				CHANNELS 6 Xposition Yposition Zposition Zrotation Xrotation Yrotation 
				JOINT Foot_L
				{
					OFFSET 40.9854 0.0 -1.26872e-05
					CHANNELS 6 Xposition Yposition Zposition Zrotation Xrotation Yrotation 
					JOINT Toes_L
					{
						OFFSET 11.7543 0.0 0.0
						CHANNELS 6 Xposition Yposition Zposition Zrotation Xrotation Yrotation 
						End Site
						{
							OFFSET 0.0 0.0 0.0
						}
					}
				}
			}
		}
		JOINT UpperLeg_R
		{
			OFFSET -2.19251 6.46944 0.0
			CHANNELS 6 Xposition Yposition Zposition Zrotation Xrotation Yrotation 
			JOINT LowerLeg_R
			{
				OFFSET -39.0811 -0.00228153 -0.0401928
				CHANNELS 6 Xposition Yposition Zposition Zrotation Xrotation Yrotation 
				JOINT Foot_R
				{
					OFFSET -40.9854 0.0 0.0
					CHANNELS 6 Xposition Yposition Zposition Zrotation Xrotation Yrotation 
					JOINT Toes_R
					{
						OFFSET -11.7543 0.0 0.0
						CHANNELS 6 Xposition Yposition Zposition Zrotation Xrotation Yrotation 
						End Site
						{
							OFFSET 0.0 0.0 0.0
						}
					}
				}
			}
		}
	}
}
MOTION
Frames:	6
Frame Time:	0.0333333
0.000000 0.000000 0.000000 0.000000 0.000000 -0.000000 -2.739290 92.644400 -0.707126 86.454700 1.786250 0.654720 15.735700 0.000005 -0.000001 66.855800 88.259300 -65.978000 8.984550 -0.406207 -0.000000 -4.553740 -1.461520 1.698630 16.377300 -0.000001 -0.000001 7.931450 0.545057 3.802710 6.456720 -0.000001 -0.000000 7.021570 2.415930 13.271000 12.994200 -0.242716 4.980390 -92.226400 6.709580 -71.594800 5.348090 -0.000007 -0.000001 -73.257800 27.885200 1.252400 24.328600 0.000019 0.000005 13.657800 31.076800 -25.208600 22.291600 -0.000001 0.000005 -3.553810 5.037560 6.510190 12.994500 -0.242716 -4.980390 87.496500 7.490230 -71.458100 -5.348130 -0.000001 -0.000004 -68.207000 -10.810900 -7.126170 -24.328900 0.000322 -0.000009 -2.056610 2.203240 -136.950000 -22.291500 -0.000108 -0.000004 66.910300 5.443610 -4.412910 -2.192480 -6.469440 -0.000000 -174.753000 1.906630 -4.907110 39.081100 -0.000007 -0.000012 0.255335 -0.616078 22.512200 40.985400 -0.000006 -0.000013 1.199270 8.004290 -72.973100 11.754300 -0.000000 0.000003 0.000030 0.167119 -9.798580 -2.192510 6.469440 -0.000001 -172.836000 10.544600 -178.801000 -39.081100 -0.002282 -0.040193 0.031896 -0.128746 12.508200 -40.985400 0.000008 0.000006 0.788248 1.870410 -69.029300 -11.754300 -0.000006 -0.000006 -0.009385 0.266654 -5.741170
0.000000 0.000000 0.000000 0.000000 0.000000 -0.000000 -2.742150 92.644000 -0.689712 86.480100 1.746330 0.603765 15.735700 0.000005 -0.000001 66.284400 88.270600 -65.387300 8.984550 -0.406207 -0.000000 -4.587920 -1.486530 1.735940 16.377300 -0.000001 -0.000001 7.895000 0.622195 3.641450 6.456720 -0.000001 -0.000000 7.074720 2.490140 13.083700 12.994200 -0.242716 4.980390 -92.245900 6.755740 -71.562800 5.348090 -0.000007 -0.000001 -73.180700 27.906300 1.248200 24.328600 0.000019 0.000005 13.690200 31.205500 -25.180800 22.291600 -0.000001 0.000005 -3.696510 5.038970 6.479370 12.994500 -0.242716 -4.980390 87.494700 7.523850 -71.523000 -5.348130 -0.000001 -0.000004 -67.525500 -9.721950 -6.592770 -24.328900 0.000322 -0.000009 2.743970 -2.890620 -136.456000 -22.291500 -0.000108 -0.000004 65.580800 5.468950 -5.341030 -2.192480 -6.469440 -0.000000 -174.787000 1.802120 -4.913990 39.081100 -0.000007 -0.000012 0.259141 -0.626250 22.480200 40.985400 -0.000006 -0.000013 1.218500 8.041010 -72.993500 11.754300 -0.000000 0.000003 -0.000026 0.168059 -9.760410 -2.192510 6.469440 -0.000001 -172.851000 10.560700 -178.840000 -39.081100 -0.002282 -0.040193 0.032359 -0.130793 12.511700 -40.985400 0.000008 0.000006 0.841220 1.868040 -69.065100 -11.754300 -0.000006 -0.000006 -0.009722 0.269217 -5.636400
0.000000 0.000000 0.000000 0.000000 0.000000 -0.000000 -2.749070 92.641800 -0.652188 86.517500 1.741860 0.634721 15.735700 0.000005 -0.000001 66.705000 88.266200 -65.789400 8.984550 -0.406207 -0.000000 -4.569500 -1.468630 1.773880 16.377300 -0.000001 -0.000001 7.862160 0.706412 3.500580 6.456720 -0.000001 -0.000000 7.090450 2.541620 12.880800 12.994200 -0.242716 4.980390 -92.259600 6.794060 -71.554600 5.348090 -0.000007 -0.000001 -73.113300 27.813200 1.203870 24.328600 0.000019 0.000005 13.635500 31.209800 -25.086500 22.291600 -0.000001 0.000005 -3.639380 5.038200 6.495970 12.994500 -0.242716 -4.980390 87.465700 7.624130 -71.550900 -5.348130 -0.000001 -0.000004 -66.334000 -7.688140 -5.864230 -24.328900 0.000322 -0.000009 9.239350 -9.625470 -135.786000 -22.291500 -0.000108 -0.000004 64.697000 5.540470 -8.295010 -2.192480 -6.469440 -0.000000 -174.803000 1.778650 -4.838820 39.081100 -0.000007 -0.000012 0.254616 -0.616838 22.430200 40.985400 -0.000006 -0.000013 1.208590 8.072360 -72.958700 11.754300 -0.000000 0.000003 -0.000000 0.167630 -9.777830 -2.192510 6.469440 -0.000001 -172.883000 10.458400 -178.783000 -39.081100 -0.002282 -0.040193 0.032737 -0.132416 12.519000 -40.985400 0.000008 0.000006 0.831568 1.817900 -69.074000 -11.754300 -0.000006 -0.000006 -0.009354 0.266412 -5.751080
0.000000 0.000000 0.000000 0.000000 0.000000 -0.000000 -2.763270 92.646900 -0.619991 86.553300 1.748740 0.601475 15.735700 0.000005 -0.000001 66.232600 88.259000 -65.303100 8.984550 -0.406207 -0.000000 -4.567350 -1.502080 1.800400 16.377300 -0.000001 -0.000001 7.820380 0.760712 3.430270 6.456720 -0.000001 -0.000000 7.076180 2.669380 12.674300 12.994200 -0.242716 4.980390 -92.268800 6.785960 -71.464000 5.348090 -0.000007 -0.000001 -73.070600 27.688600 1.153540 24.328600 0.000019 0.000005 13.723600 31.335000 -25.154500 22.291600 -0.000001 0.000005 -3.641480 5.035210 6.561510 12.994500 -0.242716 -4.980390 87.457200 7.654760 -71.561700 -5.348130 -0.000001 -0.000004 -65.301300 -5.744390 -5.260380 -24.328900 0.000322 -0.000009 15.597800 -16.010800 -134.654000 -22.291500 -0.000108 -0.000004 63.195200 5.619740 -12.702200 -2.192480 -6.469440 -0.000000 -174.827000 1.777490 -4.796080 39.081100 -0.000007 -0.000012 0.253369 -0.616603 22.338800 40.985400 -0.000006 -0.000013 1.206530 8.108170 -72.975200 11.754300 -0.000000 0.000003 -0.000043 0.168341 -9.748960 -2.192510 6.469440 -0.000001 -172.919000 10.513700 -178.765000 -39.081100 -0.002282 -0.040193 0.031561 -0.127713 12.462800 -40.985400 0.000008 0.000006 0.813662 1.855250 -69.071200 -11.754300 -0.000006 -0.000006 -0.009480 0.267375 -5.711720
0.000000 0.000000 0.000000 0.000000 0.000000 -0.000000 -2.780870 92.639500 -0.581185 86.588900 1.708050 0.636340 15.735700 0.000005 -0.000001 66.541800 88.258400 -65.614800 8.984550 -0.406207 -0.000000 -4.558880 -1.485020 1.796090 16.377300 -0.000001 -0.000001 7.881170 0.826340 3.451700 6.456720 -0.000001 -0.000000 7.099450 2.770680 12.579200 12.994200 -0.242716 4.980390 -92.270000 6.788050 -71.459900 5.348090 -0.000007 -0.000001 -73.025400 27.609000 1.178670 24.328600 0.000019 0.000005 13.720700 31.244400 -25.207100 22.291600 -0.000001 0.000005 -3.510840 5.034750 6.571340 12.994500 -0.242716 -4.980390 87.432000 7.735830 -71.571900 -5.348130 -0.000001 -0.000004 -64.569700 -4.970180 -4.876160 -24.328900 0.000322 -0.000009 20.969100 -21.034000 -133.122000 -22.291500 -0.000108 -0.000004 61.322200 5.671240 -17.744600 -2.192480 -6.469440 -0.000000 -174.849000 1.712620 -4.720010 39.081100 -0.000007 -0.000012 0.254831 -0.620541 22.326500 40.985400 -0.000006 -0.000013 1.198950 8.125180 -72.997200 11.754300 -0.000000 0.000003 0.000035 0.167033 -9.802090 -2.192510 6.469440 -0.000001 -172.941000 10.417800 -178.724000 -39.081100 -0.002282 -0.040193 0.032939 -0.133317 12.520000 -40.985400 0.000008 0.000006 0.842766 1.808120 -69.147700 -11.754300 -0.000006 -0.000006 -0.009505 0.267565 -5.703930
0.000000 0.000000 0.000000 0.000000 0.000000 -0.000000 -2.806560 92.630300 -0.554012 86.588500 1.708150 0.645574 15.735700 0.000005 -0.000001 66.284900 88.252400 -65.372200 8.984550 -0.406207 -0.000000 -4.554120 -1.502620 1.766970 16.377300 -0.000001 -0.000001 7.931580 0.869911 3.487350 6.456720 -0.000001 -0.000000 7.224570 2.846530 12.758400 12.994200 -0.242716 4.980390 -92.257900 6.746500 -71.447400 5.348090 -0.000007 -0.000001 -73.004900 27.686700 1.110140 24.328600 0.000019 0.000005 13.695900 31.225400 -25.177700 22.291600 -0.000001 0.000005 -3.512870 5.034250 6.582210 12.994500 -0.242716 -4.980390 87.419400 7.799030 -71.626900 -5.348130 -0.000001 -0.000004 -64.284900 -5.158850 -4.788920 -24.328900 0.000322 -0.000009 24.939400 -24.258100 -131.460000 -22.291500 -0.000108 -0.000004 60.541400 5.681970 -20.986100 -2.192480 -6.469440 -0.000000 -174.829000 1.683280 -4.716840 39.081100 -0.000007 -0.000012 0.252709 -0.614317 22.361100 40.985400 -0.000006 -0.000013 1.188470 8.133780 -72.980200 11.754300 -0.000000 0.000003 0.000036 0.167014 -9.802830 -2.192510 6.469440 -0.000001 -172.923000 10.430300 -178.711000 -39.081100 -0.002282 -0.040193 0.033321 -0.134785 12.542800 -40.985400 0.000008 0.000006 0.897914 1.799500 -69.153100 -11.754300 -0.000006 -0.000006 -0.009360 0.266462 -5.749010
